<svg width="25" height="24" viewBox="0 0 25 24" fill="none" xmlns="http://www.w3.org/2000/svg">
<path d="M17.7397 2H7.73975C4.97832 2 2.73975 4.23858 2.73975 7V17C2.73975 19.7614 4.97832 22 7.73975 22H17.7397C20.5012 22 22.7397 19.7614 22.7397 17V7C22.7397 4.23858 20.5012 2 17.7397 2Z" stroke="white" stroke-linecap="round" stroke-linejoin="round"/>
<path d="M16.7399 11.3701C16.8634 12.2023 16.7212 13.0523 16.3337 13.7991C15.9462 14.5459 15.3331 15.1515 14.5816 15.5297C13.83 15.908 12.9784 16.0397 12.1477 15.906C11.3171 15.7723 10.5497 15.3801 9.95478 14.7852C9.35986 14.1903 8.96767 13.4229 8.83401 12.5923C8.70034 11.7616 8.83201 10.91 9.21027 10.1584C9.58853 9.40691 10.1941 8.7938 10.9409 8.4063C11.6877 8.0188 12.5377 7.87665 13.3699 8.00006C14.2189 8.12594 15.0048 8.52152 15.6116 9.12836C16.2185 9.73521 16.6141 10.5211 16.7399 11.3701Z" stroke="white" stroke-linecap="round" stroke-linejoin="round"/>
<path d="M18.2397 6.5H18.2497" stroke="white" stroke-width="2" stroke-linecap="round" stroke-linejoin="round"/>
</svg>
