<svg width="65" height="66" viewBox="0 0 65 66" fill="none" xmlns="http://www.w3.org/2000/svg">
<path d="M47.8773 2.41516H17.2924C8.84666 2.41516 2 9.26182 2 17.7076V48.2925C2 56.7383 8.84666 63.5849 17.2924 63.5849H47.8773C56.3231 63.5849 63.1697 56.7383 63.1697 48.2925V17.7076C63.1697 9.26182 56.3231 2.41516 47.8773 2.41516Z" stroke="#1D1D1D" stroke-width="3.05849" stroke-linecap="round" stroke-linejoin="round"/>
<path d="M44.82 31.0734C45.1974 33.6188 44.7626 36.2184 43.5775 38.5025C42.3923 40.7865 40.5171 42.6388 38.2186 43.7957C35.9201 44.9526 33.3153 45.3553 30.7747 44.9464C28.2342 44.5376 25.8872 43.3381 24.0676 41.5186C22.2481 39.699 21.0486 37.352 20.6398 34.8115C20.231 32.2709 20.6336 29.6661 21.7905 27.3676C22.9475 25.0691 24.7997 23.1939 27.0837 22.0087C29.3678 20.8236 31.9674 20.3888 34.5129 20.7663C37.1093 21.1513 39.513 22.3611 41.3691 24.2172C43.2251 26.0732 44.4349 28.4769 44.82 31.0734Z" stroke="#1D1D1D" stroke-width="3.05849" stroke-linecap="round" stroke-linejoin="round"/>
<path d="M49.4062 16.1783H49.4368" stroke="#1D1D1D" stroke-width="6.11698" stroke-linecap="round" stroke-linejoin="round"/>
</svg>
