<svg width="175" height="39" viewBox="0 0 175 39" fill="none" xmlns="http://www.w3.org/2000/svg">
<g clip-path="url(#clip0_87_376)">
<path d="M174.826 12.6887C175.845 8.27298 172.317 5.06152 164.581 5.06152H141.608C143.412 7.12104 144.832 9.52091 145.764 12.1564H161.062C162.821 12.1564 164.102 12.5666 163.727 14.0937C163.405 15.6209 161.968 15.9962 160.208 15.9962H146.748C146.931 17.1394 147.027 18.3088 147.027 19.5044C147.027 20.5428 146.957 21.5639 146.818 22.5587H159.894C161.654 22.5587 162.83 23.2569 162.455 24.7841C162.133 26.3112 160.696 26.8087 158.936 26.8087H145.79C144.858 29.4616 143.429 31.8789 141.617 33.9472H159.145C166.402 33.9472 171.908 30.8928 172.97 26.2676C174.042 21.7733 169.982 19.3735 162.987 19.2513C169.329 18.9633 173.868 16.9387 174.826 12.6887Z" fill="white"/>
<path d="M117.981 34.9857H118.251V34.977C119.314 34.9246 120.342 34.7239 121.309 34.3574C122.694 33.8425 123.983 33.0047 125.16 31.8615C126.153 30.8928 127.067 29.706 127.869 28.3359C128.888 26.5905 130.378 25.0546 132.085 23.9987C133.087 23.3791 134.15 22.934 135.256 22.6547C136.154 22.4278 137.086 22.3231 138.027 22.3406C138.096 21.7559 138.14 21.1712 138.166 20.5778H115.594L112.284 34.9857H117.467C117.633 34.9944 117.807 34.9944 117.981 34.9857Z" fill="#00AB4E"/>
<path d="M138.001 16.5373C137.06 16.546 136.136 16.4413 135.239 16.2231C134.133 15.9526 133.07 15.4988 132.068 14.8792C130.369 13.8233 128.871 12.2873 127.851 10.542C127.05 9.17187 126.144 7.98503 125.142 7.01636C123.966 5.87315 122.677 5.03538 121.292 4.5205C120.673 4.2936 120.037 4.12779 119.384 4.02307L116.073 18.4223H138.149C138.131 17.7852 138.079 17.1656 138.001 16.5373Z" fill="#00AB4E"/>
<path d="M140.318 18.4218H143.21C143.14 17.1826 142.957 15.9609 142.661 14.774C142.339 15.1842 141.929 15.5246 141.442 15.7951C141.058 16.0045 140.623 16.1791 140.135 16.3012C140.231 16.9907 140.283 17.7062 140.318 18.4218Z" fill="#00AB4E"/>
<path d="M138.976 11.1441C139.307 12.1302 139.577 13.1338 139.795 14.1461C140.405 13.9628 140.84 13.6661 141.093 13.2647C141.607 12.4444 141.337 11.1964 141.18 10.7426C140.248 8.88383 139.028 7.19956 137.547 5.70728C136.589 4.74733 135.544 3.89211 134.42 3.15906C134.742 3.51686 135.047 3.89211 135.352 4.27609C136.894 6.29197 138.114 8.59584 138.976 11.1441Z" fill="#00AB4E"/>
<path d="M141.084 25.6132C140.84 25.2117 140.413 24.9237 139.812 24.7405C139.595 25.7964 139.316 26.8349 138.976 27.8559C138.114 30.4042 136.894 32.708 135.343 34.7152C135.038 35.1079 134.733 35.4744 134.411 35.8322C135.535 35.0992 136.58 34.2439 137.539 33.284C139.046 31.7743 140.274 30.0638 141.206 28.1788L141.163 28.1614V28.1701C141.319 27.7425 141.616 26.4597 141.084 25.6132Z" fill="#00AB4E"/>
<path d="M116.822 1.75408H118.608C119.802 1.83262 120.952 2.07697 122.049 2.48713C123.713 3.10674 125.264 4.11032 126.649 5.46297C127.782 6.57127 128.818 7.91519 129.716 9.45111C130.552 10.891 131.798 12.1651 133.2 13.0378C134.577 13.8843 136.066 14.3381 137.635 14.373C137.452 13.5091 137.216 12.6626 136.929 11.8335C136.145 9.52092 135.038 7.42649 133.636 5.6026C130.883 2.04207 127.285 0 123.774 0H108.825L108.424 1.75408H116.822Z" fill="#00AB4E"/>
<path d="M140.161 22.5936C140.64 22.7158 141.067 22.8816 141.45 23.0911C141.947 23.3703 142.365 23.7194 142.687 24.1383C142.975 22.9776 143.149 21.7908 143.21 20.5778H140.317C140.291 21.2584 140.23 21.9304 140.161 22.5936Z" fill="#00AB4E"/>
<path d="M137.661 24.5048C136.084 24.5397 134.585 24.9847 133.2 25.84C131.798 26.7126 130.561 27.978 129.716 29.4267C128.818 30.9713 127.79 32.3065 126.649 33.4148C125.264 34.7675 123.713 35.771 122.049 36.3906C120.838 36.8444 119.575 37.1411 118.268 37.2459H97.3255L96.9248 39H123.774C127.285 39 130.883 36.9579 133.636 33.3886C135.038 31.5735 136.145 29.479 136.929 27.1577C137.225 26.2938 137.469 25.4036 137.661 24.5048Z" fill="#00AB4E"/>
<path d="M70.2858 5.04407H78.893L89.9045 22.2707L108.809 5.04407H117.416L110.786 33.9559H99.9926L103.146 20.2025L88.3451 33.9559H86.0975L77.6036 20.1589L74.45 33.9559H63.6562L70.2858 5.04407Z" fill="white"/>
<path d="M70.3729 5.06152H0V33.9559H63.752L70.3729 5.06152Z" fill="#00AB4E"/>
<path d="M31.1793 20.281H29.7157C29.1321 20.281 28.6616 20.761 28.6616 21.3457V26.5992C28.6616 27.2101 29.1059 27.6639 29.7157 27.6639H31.1793C31.763 27.6639 32.2334 27.1839 32.2334 26.5992V25.2116H31.1009V26.381C31.1009 26.5119 30.9963 26.6167 30.8657 26.6167H30.0555C29.9248 26.6167 29.8203 26.5119 29.8203 26.381V21.5377C29.8203 21.4068 29.9248 21.302 30.0555 21.302H30.8657C30.9963 21.302 31.1009 21.4068 31.1009 21.5377V22.7856H32.2334V21.3457C32.2421 20.761 31.763 20.281 31.1793 20.281Z" fill="white"/>
<path d="M36.0057 21.7471H32.6865V22.7856H33.7755V27.6551H34.908V22.7856H36.0057V21.7471Z" fill="white"/>
<path d="M17.7112 25.072H17.6066V21.7471H16.4741V27.6551H17.4673L18.713 24.496H18.8176V27.6551H19.9501V21.7471H18.9395L17.7112 25.072Z" fill="white"/>
<path d="M12.8324 20.281L11.4473 27.6551H12.6408L13.5903 21.4853H13.7036L14.688 27.6551H15.8902L14.5225 20.281H12.8324Z" fill="white"/>
<path d="M37.1467 21.7471L35.9097 27.6551H37.0509L37.1903 26.8959H38.7061L38.8455 27.6551H39.9867L38.7584 21.7471H37.1467ZM37.3732 25.9272L37.8959 22.7943H38.0005L38.5232 25.9272H37.3732Z" fill="white"/>
<path d="M24.2883 21.7471L23.0513 27.6551H24.1925L24.3319 26.8959H25.8477L25.9871 27.6551H27.1283L25.9 21.7471H24.2883ZM24.5148 25.9272L25.0375 22.7943H25.1421L25.6648 25.9272H24.5148Z" fill="white"/>
<path d="M23.3649 21.7471H20.7949V27.6551H21.9274V22.7856H23.3649V21.7471Z" fill="white"/>
<path d="M46.8604 21.7471H45.6059C45.0222 21.7471 44.5518 22.227 44.5518 22.8117V26.5992C44.5518 27.1839 45.0222 27.6638 45.6059 27.6638H46.8604C47.444 27.6638 47.9145 27.1839 47.9145 26.5992V22.8117C47.9232 22.227 47.444 21.7471 46.8604 21.7471ZM46.7907 26.381C46.7907 26.5119 46.6861 26.6166 46.5554 26.6166H45.9195C45.7888 26.6166 45.6843 26.5119 45.6843 26.381V23.0212C45.6843 22.8903 45.7888 22.7856 45.9195 22.7856H46.5554C46.6861 22.7856 46.7907 22.8903 46.7907 23.0212V26.381Z" fill="white"/>
<path d="M6.29004 11.3535V27.6639H9.41753V14.3293H53.9864V27.6639H57.1139V11.3535H6.29004Z" fill="white"/>
<path d="M52.3311 21.7471H51.1115L50.0835 24.2604H49.8919V21.7471H48.7681V27.6551H49.8919V25.2378H50.1271L51.1725 27.6551H52.3921L51.0854 24.6967L52.3311 21.7471Z" fill="white"/>
<path d="M43.0531 24.7753V24.6618C43.4887 24.5745 43.8198 24.1818 43.8198 23.7106V22.803C43.8198 22.2183 43.3493 21.7471 42.7657 21.7471H40.5703V27.6551H42.8179C43.4016 27.6551 43.872 27.1751 43.872 26.5904V25.7527C43.872 25.2727 43.5149 24.8625 43.0531 24.7753ZM41.6941 22.7943H42.452C42.5827 22.7943 42.6872 22.899 42.6872 23.0299V24.0335C42.6872 24.1644 42.5827 24.2691 42.452 24.2691H41.6941V22.7943ZM42.7395 26.381C42.7395 26.5119 42.635 26.6166 42.5043 26.6166H41.6941V25.2378H42.5043C42.635 25.2378 42.7395 25.3425 42.7395 25.4734V26.381Z" fill="white"/>
</g>
<defs>
<clipPath id="clip0_87_376">
<rect width="175" height="39" fill="white"/>
</clipPath>
</defs>
</svg>
