<svg width="81" height="5" viewBox="0 0 81 5" fill="none" xmlns="http://www.w3.org/2000/svg">
<g clip-path="url(#clip0_87_405)">
<path d="M0 0.142883H1.97947V3.71431H6.33431V4.85717H0V0.142883Z" fill="#06AB4D"/>
<path d="M23.6746 3.28573H25.8124C25.8124 3.42859 26.1291 3.78573 27.5544 3.78573C28.6629 3.78573 29.613 3.7143 29.613 3.35716C29.613 2.64287 23.8329 3.64287 23.8329 1.57145C23.8329 0.571446 25.3373 -0.0714111 27.4752 -0.0714111C29.6922 -0.0714111 31.2758 0.571446 31.2758 1.64287H29.1379C29.1379 1.50002 28.9004 1.14287 27.6335 1.14287C26.6834 1.14287 25.8124 1.2143 25.8124 1.57145C25.8124 2.28573 31.5925 1.42859 31.5925 3.35716C31.5925 4.35716 30.0089 5.00002 27.7127 5.00002C25.2582 5.00002 23.5954 4.35716 23.6746 3.28573Z" fill="#06AB4D"/>
<path d="M48.0615 0.142883H49.6451L52.4164 3.00003L55.1876 0.142883H56.7712V4.9286H54.7917V2.57145L52.6539 4.85717H52.258L50.1202 2.57145V4.85717H48.1407V0.142883H48.0615Z" fill="#06AB4D"/>
<path d="M73.3198 0.142883H78.5456C79.9708 0.142883 80.7626 0.642883 80.7626 1.4286C80.7626 2.14288 80.05 2.50003 78.8623 2.50003C80.1292 2.50003 81.0002 2.9286 81.0002 3.64288C81.0002 4.4286 80.1292 4.9286 78.7832 4.9286H73.3198V0.142883ZM78.2289 1.9286C78.5456 1.9286 78.7832 1.85717 78.7832 1.64288C78.7832 1.4286 78.5456 1.35717 78.2289 1.35717H75.2993V2.00003H78.2289V1.9286ZM78.4665 3.71431C78.7832 3.71431 79.0207 3.64288 79.0207 3.35717C79.0207 3.07145 78.7832 3.00003 78.4665 3.00003H75.2993V3.71431H78.4665Z" fill="#06AB4D"/>
</g>
<defs>
<clipPath id="clip0_87_405">
<rect width="81" height="5" fill="white"/>
</clipPath>
</defs>
</svg>
