<svg width="18" height="206" viewBox="0 0 18 206" fill="none" xmlns="http://www.w3.org/2000/svg">
<g clip-path="url(#clip0_124_65)">
<path d="M0.514648 206L0.514648 200.966L13.3718 200.966L13.3718 189.891L17.4861 189.891L17.4861 206L0.514648 206Z" fill="#06AB4D"/>
<path d="M11.8289 145.791L11.8289 140.354C12.3432 140.354 13.6289 139.548 13.6289 135.924C13.6289 133.105 13.3717 130.688 12.086 130.688C9.51459 130.688 13.1146 145.388 5.65745 145.388C2.05745 145.388 -0.256836 141.562 -0.256836 136.125C-0.256836 130.487 2.05745 126.459 5.91459 126.459L5.91459 131.896C5.4003 131.896 4.11459 132.501 4.11459 135.722C4.11459 138.139 4.37173 140.354 5.65745 140.354C8.22887 140.354 5.14316 125.654 12.086 125.654C15.686 125.654 18.0003 129.681 18.0003 135.521C18.0003 141.763 15.686 145.992 11.8289 145.791Z" fill="#06AB4D"/>
<path d="M0.514648 83.7693L0.514648 79.7419L10.8004 72.694L0.514649 65.6461L0.514649 61.6188L17.7432 61.6188L17.7432 66.653L9.2575 66.653L17.4861 72.0899L17.4861 73.0968L9.2575 78.5337L17.4861 78.5337L17.4861 83.5679L0.514648 83.5679L0.514648 83.7693Z" fill="#06AB4D"/>
<path d="M0.514648 19.5328L0.514649 6.24246C0.514649 2.61782 2.31465 0.604132 5.14322 0.604132C7.71465 0.604132 9.00036 2.41645 9.00036 5.43698C9.00036 2.21508 10.5432 2.00841e-05 13.1146 2.01148e-05C15.9432 2.01485e-05 17.7432 2.21508 17.7432 5.63834L17.7432 19.5328L0.514648 19.5328ZM6.94322 7.04792C6.94322 6.24244 6.68607 5.63834 5.91465 5.63834C5.14322 5.63834 4.88607 6.24244 4.88607 7.04792L4.88607 14.4986L7.20036 14.4986L7.20036 7.04792L6.94322 7.04792ZM13.3718 6.44382C13.3718 5.63835 13.1146 5.03423 12.0861 5.03423C11.0575 5.03423 10.8004 5.63835 10.8004 6.44382L10.8004 14.4986L13.3718 14.4986L13.3718 6.44382Z" fill="#06AB4D"/>
</g>
<defs>
<clipPath id="clip0_124_65">
<rect width="206" height="18" fill="white" transform="translate(0 206) rotate(-90)"/>
</clipPath>
</defs>
</svg>
