<svg width="242" height="282" viewBox="0 0 242 282" fill="none" xmlns="http://www.w3.org/2000/svg">
<g clip-path="url(#clip0_151_53)">
<path d="M139.599 246.217C138.518 244.271 137.761 242.108 137.112 239.729C133.652 240.162 130.083 240.486 126.623 240.594V254.976C132.787 254.652 138.734 253.786 144.681 252.273C142.627 250.651 140.897 248.596 139.599 246.217Z" fill="#06AB4D"/>
<path d="M91.0478 244.487C92.9942 243.298 94.5081 241.135 95.3731 238.215C90.1828 237.134 84.9924 235.728 80.0183 234.106C67.475 229.889 56.013 223.834 46.173 216.156C44.2266 214.643 42.3883 213.129 40.6582 211.507C44.3347 217.021 48.4437 222.212 53.2015 226.97C60.6627 234.431 69.097 240.486 78.3964 245.136L78.5045 244.92C80.559 245.568 86.8307 247.082 91.0478 244.487Z" fill="#06AB4D"/>
<path d="M103.482 246.217C102.077 248.704 100.347 250.759 98.292 252.381C104.023 253.786 109.862 254.651 115.918 254.976V240.594C112.565 240.486 109.213 240.162 105.969 239.837C105.429 242.216 104.564 244.379 103.482 246.217Z" fill="#06AB4D"/>
<path d="M135.922 229.132C135.922 224.483 136.355 219.941 137.544 215.508C138.95 209.993 141.113 204.802 144.14 199.828C149.331 191.394 156.9 184.041 165.551 178.959C168.795 177.121 171.822 175.066 174.634 172.903H126.623V229.889C129.759 229.781 132.787 229.565 135.922 229.132Z" fill="#06AB4D"/>
<path d="M115.918 172.903H68.5557C71.3671 175.066 74.3948 177.012 77.6388 178.959C86.2894 183.933 93.8586 191.394 99.049 199.828C102.077 204.802 104.347 209.993 105.645 215.508C106.726 219.941 107.267 224.591 107.267 229.24C110.187 229.565 112.998 229.781 115.918 229.889V172.903Z" fill="#06AB4D"/>
<path d="M52.6608 207.506C61.6358 214.426 72.0165 219.941 83.4785 223.834C87.8038 225.239 92.1291 226.537 96.6706 227.402C96.4544 219.617 94.2917 212.155 90.0746 205.343C85.7493 198.423 79.4776 192.259 72.3409 188.15C64.7716 183.717 58.0674 178.634 52.6608 173.012C52.6608 173.012 52.6608 172.903 52.5527 172.903H27.1416V173.12C31.0344 185.555 39.9012 197.666 52.6608 207.506Z" fill="#06AB4D"/>
<path d="M215.399 172.903H190.745L190.637 173.012C185.122 178.634 178.526 183.717 170.957 188.15C163.82 192.259 157.548 198.423 153.223 205.343C149.006 212.155 146.843 219.508 146.627 227.294C150.844 226.321 155.061 225.239 159.17 223.834C170.632 219.941 181.013 214.426 189.988 207.506C202.748 197.666 211.614 185.555 215.507 173.012V172.903H215.399Z" fill="#06AB4D"/>
<path d="M189.447 226.861C194.205 222.104 198.422 216.913 201.991 211.399C200.261 213.021 198.422 214.534 196.476 216.048C186.528 223.726 175.174 229.781 162.631 233.998C157.765 235.62 152.79 237.026 147.816 237.999C148.681 241.027 150.195 243.189 152.142 244.379C156.251 246.866 162.306 245.568 164.577 244.811C173.66 240.27 182.094 234.214 189.447 226.861Z" fill="#06AB4D"/>
<path d="M118.838 42.2797H111.917C109.106 42.2797 106.943 44.5505 106.943 47.3619V72.2324C106.943 75.1519 109.106 77.3146 111.917 77.3146H118.838C121.649 77.3146 123.812 75.0438 123.812 72.2324V65.6363H118.405V71.151C118.405 71.7998 117.865 72.2324 117.324 72.2324H113.431C112.782 72.2324 112.35 71.6917 112.35 71.151V48.227C112.35 47.5782 112.89 47.1457 113.431 47.1457H117.324C117.973 47.1457 118.405 47.6863 118.405 48.227V54.1743H123.812V47.3619C123.812 44.5505 121.541 42.2797 118.838 42.2797ZM54.8234 64.9875H54.2827V49.2002H48.8761V77.2064H53.634L59.5812 62.1761H60.1219V77.2064H65.5285V49.3083H60.7707L54.8234 64.9875ZM86.0736 49.3083L80.2345 77.3146H85.6411L86.2899 73.7462H93.5348L94.1835 77.3146H99.5902L93.751 49.3083H86.0736ZM87.155 69.0965L89.642 54.2824H90.1827L92.6697 69.0965H87.155ZM31.575 42.2797L24.9789 77.2064H30.7099L35.2515 47.9026H35.7921L40.4418 77.2064H46.1728L39.6849 42.2797H31.575ZM81.6402 49.3083H69.4213V77.3146H74.8279V54.1743H81.6402V49.3083ZM219.293 49.3083H213.453L208.587 61.2029H207.614V49.3083H202.316V77.3146H207.614V65.8526H208.804L213.778 77.3146H219.617L213.345 63.2574L219.293 49.3083ZM141.654 49.3083H125.866V54.1743H131.057V77.3146H136.463V54.1743H141.654V49.3083ZM193.233 49.3083H187.285C184.474 49.3083 182.311 51.5791 182.311 54.3905V72.3405C182.311 75.1519 184.582 77.4227 187.285 77.4227H193.233C196.044 77.4227 198.207 75.1519 198.207 72.3405V54.2824C198.315 51.5791 196.044 49.3083 193.233 49.3083ZM192.908 71.2592C192.908 71.908 192.368 72.3405 191.827 72.3405H188.799C188.15 72.3405 187.718 71.7998 187.718 71.2592V55.3637C187.718 54.7149 188.259 54.2824 188.799 54.2824H191.827C192.476 54.2824 192.908 54.8231 192.908 55.3637V71.2592ZM0.541016 0V77.3146H15.4633V14.0572H227.078V77.2064H242V0H0.541016ZM147.06 49.3083L141.221 77.3146H146.628L147.276 73.7462H154.521L155.17 77.3146H160.577L154.738 49.3083H147.06ZM148.142 69.0965L150.629 54.2824H151.169L153.656 69.0965H148.142ZM175.175 63.5818V63.0411C177.229 62.6086 178.851 60.7703 178.851 58.4996V54.1743C178.851 51.3628 176.58 49.2002 173.877 49.2002H163.496V77.2064H174.201C177.013 77.2064 179.175 74.9357 179.175 72.1242V68.1233C179.067 65.9607 177.337 64.0143 175.175 63.5818ZM168.687 54.1743H172.255C172.904 54.1743 173.336 54.7149 173.336 55.2556V60.0134C173.336 60.6622 172.796 61.0947 172.255 61.0947H168.687V54.1743ZM173.661 71.2592C173.661 71.908 173.12 72.3405 172.579 72.3405H168.687V65.8526H172.579C173.228 65.8526 173.661 66.3932 173.661 66.9339V71.2592Z" fill="white"/>
<path d="M226.537 172.903C223.618 198.423 211.399 221.996 192.259 239.297C182.744 247.947 171.822 254.651 159.928 259.301C147.601 264.167 134.625 266.546 121.216 266.546C94.832 266.546 69.4209 256.814 49.9571 238.972C30.9258 221.671 18.815 198.206 15.8954 172.795H1.18945C4.21716 202.424 18.0581 229.673 40.1171 249.786C62.3923 270.006 91.1555 281.144 121.324 281.144C151.277 281.144 180.04 270.114 202.207 250.002C224.266 230.105 238.107 202.964 241.351 173.552C241.351 173.336 241.351 173.012 241.459 172.795H226.537V172.903Z" fill="white"/>
<path d="M55.7962 133.111L38.1707 155.819C38.7113 154.953 38.9276 153.98 38.9276 152.899C38.9276 148.682 34.6023 146.519 28.1144 146.411C33.9535 146.195 37.7382 144.248 37.7382 140.248C37.7382 136.138 33.7373 133.111 26.4924 133.111H0V160.036H27.79C32.1153 160.036 35.4674 158.846 37.3056 157.008L34.9267 160.036H46.8213L50.0652 155.494H72.2324L75.4763 160.036H87.3709L66.5013 133.111H55.7962ZM24.8704 139.707C26.4924 139.707 27.79 140.139 27.79 141.545C27.79 142.951 26.4924 143.275 24.8704 143.275H10.1644V139.707H24.8704ZM25.9517 153.332H10.1644V149.331H25.9517C27.5737 149.331 28.8713 149.979 28.8713 151.385C28.8713 152.791 27.6819 153.332 25.9517 153.332ZM54.9312 148.898L61.311 140.139L67.5827 148.898H54.9312ZM160.468 106.943C160.468 95.3726 150.304 89.2091 133.651 89.2091H111.484V124.676H133.651C150.196 124.676 160.468 118.621 160.468 106.943ZM124.785 97.8597H133.651C142.626 97.8597 147.168 100.563 147.168 106.835C147.168 112.998 142.843 115.81 133.651 115.81H124.785V97.8597ZM192.043 118.621H221.239L225.564 124.568H241.243L213.669 89.101H199.396L174.85 120.784V89.2091H161.55V124.676H187.609L192.043 118.621ZM206.749 98.4003L215.075 109.97H198.423L206.749 98.4003ZM165.875 133.111V158.306L151.926 142.518L165.875 133.111H150.844L134.517 145.222V133.111H124.352V160.036H134.408V154.413L143.6 148.141L153.332 159.928H200.91V153.332H175.823V149.439H200.477V143.167H175.823V139.707H216.048V160.036H226.105V139.707H241.567V133.111H165.875ZM108.24 115.918H75.1519V110.727H107.592V102.509H75.1519V97.8597H108.24V89.101H61.8517V124.568H108.132V115.918H108.24ZM94.1832 141.437C94.1832 139.382 98.6166 139.058 103.591 139.166C110.295 139.274 111.484 141.004 111.376 142.086H122.189C122.081 136.355 114.188 132.57 102.726 132.57C91.588 132.57 84.1269 136.138 84.1269 141.761C84.1269 153.332 113.323 148.033 113.323 151.818C113.323 153.872 108.132 154.197 102.726 154.088C95.697 153.98 93.9669 152.25 94.0751 151.169H83.2618C83.1537 156.9 91.2636 160.685 103.591 160.685C115.485 160.685 123.379 157.116 123.379 151.493C123.379 140.788 94.1832 145.546 94.1832 141.437ZM13.3003 107.7L27.5737 124.676H30.3852L44.6586 107.7V124.676H57.9589V89.2091H47.3619L28.9794 110.295L10.597 89.2091H0V124.676H13.3003V107.7Z" fill="white"/>
</g>
<defs>
<clipPath id="clip0_151_53">
<rect width="242" height="281.252" fill="white"/>
</clipPath>
</defs>
</svg>
