<svg width="1258" height="361" viewBox="0 0 1258 361" fill="none" xmlns="http://www.w3.org/2000/svg">
<rect opacity="0.25" y="31.9999" width="1050" height="297" fill="#06AB4D"/>
<rect opacity="0.25" x="208" y="31.9999" width="1050" height="297" fill="#06AB4D"/>
<rect x="50" y="-6.10352e-05" width="1156" height="361" fill="#06AB4D"/>
<mask id="mask0_105_512" style="mask-type:alpha" maskUnits="userSpaceOnUse" x="50" y="0" width="1156" height="361">
<rect x="50" y="-6.10352e-05" width="1156" height="361" fill="#06AB4D"/>
</mask>
<g mask="url(#mask0_105_512)">
<path d="M1310.26 49.4527L-80.96 49.4527" stroke="black" stroke-width="0.5" stroke-miterlimit="10"/>
<path d="M1310.26 101.231L-80.96 101.231" stroke="black" stroke-width="0.5" stroke-miterlimit="10"/>
<path d="M1310.26 152.841L-80.96 152.841" stroke="black" stroke-width="0.5" stroke-miterlimit="10"/>
<path d="M1310.26 204.45L-80.96 204.45" stroke="black" stroke-width="0.5" stroke-miterlimit="10"/>
<path d="M1310.26 256.228L-80.96 256.228" stroke="black" stroke-width="0.5" stroke-miterlimit="10"/>
<path d="M1310.26 307.838L-80.96 307.838" stroke="black" stroke-width="0.5" stroke-miterlimit="10"/>
<path d="M1310.26 359.616L-80.96 359.616" stroke="black" stroke-width="0.5" stroke-miterlimit="10"/>
<path d="M1165.34 804L1165.34 -82.0866" stroke="black" stroke-width="0.5" stroke-miterlimit="10"/>
<path d="M1108.76 804L1108.76 -82.0865" stroke="black" stroke-width="0.5" stroke-miterlimit="10"/>
<path d="M1052 804L1052 -82.0865" stroke="black" stroke-width="0.5" stroke-miterlimit="10"/>
<path d="M995.43 804L995.43 -82.0865" stroke="black" stroke-width="0.5" stroke-miterlimit="10"/>
<path d="M258.855 804L258.855 -82.0865" stroke="black" stroke-width="0.5" stroke-miterlimit="10"/>
<path d="M202.281 804L202.281 -82.0865" stroke="black" stroke-width="0.5" stroke-miterlimit="10"/>
<path d="M145.706 804L145.706 -82.0865" stroke="black" stroke-width="0.5" stroke-miterlimit="10"/>
<path d="M88.9473 804L88.9473 -82.0865" stroke="black" stroke-width="0.5" stroke-miterlimit="10"/>
<path d="M938.671 804L938.671 -82.0865" stroke="black" stroke-width="0.5" stroke-miterlimit="10"/>
<path d="M882.097 804L882.097 -82.0865" stroke="black" stroke-width="0.5" stroke-miterlimit="10"/>
<path d="M825.521 804L825.521 -82.0865" stroke="black" stroke-width="0.5" stroke-miterlimit="10"/>
<path d="M768.762 804L768.762 -82.0865" stroke="black" stroke-width="0.5" stroke-miterlimit="10"/>
<path d="M712.188 804L712.188 -82.0865" stroke="black" stroke-width="0.5" stroke-miterlimit="10"/>
<path d="M655.429 804L655.429 -82.0865" stroke="black" stroke-width="0.5" stroke-miterlimit="10"/>
<path d="M598.855 804L598.855 -82.0865" stroke="black" stroke-width="0.5" stroke-miterlimit="10"/>
<path d="M542.28 804L542.28 -82.0865" stroke="black" stroke-width="0.5" stroke-miterlimit="10"/>
<path d="M485.522 804L485.522 -82.0865" stroke="black" stroke-width="0.5" stroke-miterlimit="10"/>
<path d="M428.947 804L428.947 -82.0865" stroke="black" stroke-width="0.5" stroke-miterlimit="10"/>
<path d="M372.189 701.645L372.189 -184.441" stroke="black" stroke-width="0.5" stroke-miterlimit="10"/>
<path d="M315.615 804L315.615 -82.0865" stroke="black" stroke-width="0.5" stroke-miterlimit="10"/>
</g>
</svg>
