<svg width="31" height="31" viewBox="0 0 31 31" fill="none" xmlns="http://www.w3.org/2000/svg">
<g clip-path="url(#clip0_87_403)">
<path d="M19.5435 13.7478C20.3522 13.7478 21.0261 12.2652 21.0261 10.2435C21.0261 8.35652 20.3522 6.73913 19.5435 6.73913C18.7348 6.73913 18.0609 8.22174 18.0609 10.2435C18.0609 12.1304 18.7348 13.7478 19.5435 13.7478ZM25.6087 15.9043C24.8 14.8261 24.1261 14.8261 24.1261 14.8261C23.4522 14.8261 22.5087 16.0391 23.587 15.6348C23.7217 15.5 23.9913 15.5 24.1261 15.5C23.8565 20.0826 20.0826 23.587 15.5 23.587C10.9174 23.587 7.14348 20.0826 6.87391 15.5C7.0087 15.5 7.27826 15.5 7.41304 15.6348C8.4913 16.0391 7.54783 14.8261 6.87391 14.8261C6.87391 14.8261 6.2 14.8261 5.3913 15.9043C4.58261 16.9826 5.25652 16.5783 5.25652 16.5783C5.25652 16.5783 5.79565 15.9043 6.33478 15.6348C8.22174 22.1043 12.1304 25.4739 15.3652 25.4739H15.6348C18.8696 25.4739 22.913 22.1043 24.6652 15.6348C25.3391 15.9043 25.7435 16.5783 25.7435 16.5783C25.7435 16.5783 26.2826 16.8478 25.6087 15.9043ZM15.5 0C7.0087 0 0 7.0087 0 15.5C0 23.9913 7.0087 31 15.5 31C23.9913 31 31 23.9913 31 15.5C31 7.0087 23.9913 0 15.5 0ZM15.5 28.4391C8.35652 28.4391 2.56087 22.6435 2.56087 15.5C2.56087 8.35652 8.35652 2.56087 15.5 2.56087C22.6435 2.56087 28.4391 8.35652 28.4391 15.5C28.4391 22.6435 22.6435 28.4391 15.5 28.4391ZM8.62609 7.95217C8.76087 7.95217 8.76087 7.95217 8.89565 7.95217C9.3 9.16522 9.56957 10.3783 9.97391 11.4565C10.1087 11.7261 10.1087 11.9957 10.2435 12.2652C10.2435 12.4 10.2435 12.4 10.3783 12.5348C10.3783 12.6696 10.513 12.8043 10.6478 12.8043C10.7826 12.8043 10.7826 12.9391 10.9174 12.9391C11.187 13.0739 11.3217 13.2087 11.5913 13.2087C11.7261 13.2087 11.8609 13.2087 11.8609 13.2087H11.9957C12.1304 13.2087 12.4 13.2087 12.5348 13.2087C12.6696 13.2087 12.6696 13.2087 12.8043 13.2087C12.9391 13.3435 13.2087 13.2087 13.4783 12.9391C13.613 12.8043 13.7478 12.8043 13.7478 12.6696C13.7478 12.5348 13.8826 12.4 13.8826 12.2652C14.0174 11.9957 14.0174 11.7261 14.1522 11.4565C14.5565 10.2435 14.8261 9.03044 15.2304 7.95217H15.3652C15.5 7.95217 15.5 7.95217 15.6348 7.81739C15.7696 7.68261 15.9043 7.54783 15.7696 7.27826C15.7696 7.14348 15.6348 7.0087 15.5 7.0087C15.0957 6.87391 14.8261 7.14348 14.8261 7.41304C14.6913 7.68261 14.9609 7.95217 15.0957 7.95217C14.5565 9.03044 14.0174 10.1087 13.4783 11.3217C13.613 9.83913 13.613 8.35652 13.7478 6.87391C14.0174 6.87391 14.287 6.60435 14.1522 6.2C14.1522 6.06522 14.0174 5.93044 13.7478 5.93044C13.4783 5.93044 13.0739 6.2 13.2087 6.46957C13.3435 6.60435 13.4783 6.73913 13.613 6.73913C13.3435 8.22174 12.9391 9.70435 12.6696 11.187C12.4 9.56957 12.2652 7.95217 12.1304 6.33478C12.4 6.33478 12.6696 6.06522 12.5348 5.66087C12.4 5.52609 12.2652 5.3913 12.1304 5.3913C11.9957 5.3913 11.8609 5.3913 11.8609 5.3913C11.7261 5.52609 11.4565 5.66087 11.5913 5.93044C11.5913 6.06522 11.7261 6.2 11.8609 6.2H11.9957C11.9957 6.2 11.9957 6.2 11.9957 6.33478C11.9957 6.46956 11.9957 6.46957 11.9957 6.60435C11.9957 6.87391 11.9957 7.27826 11.8609 7.54783C11.7261 8.76087 11.5913 9.97391 11.4565 11.187C11.187 9.70435 10.7826 8.22174 10.3783 6.73913C10.513 6.73913 10.513 6.73913 10.513 6.60435C10.7826 6.60435 10.7826 6.33478 10.7826 6.06522C10.7826 5.93043 10.6478 5.79565 10.513 5.79565C10.513 5.79565 10.3783 5.79565 10.2435 5.79565C10.1087 5.79565 9.97391 5.93043 9.83913 6.06522C9.70435 6.46957 9.97391 6.73913 10.3783 6.73913C10.513 8.22174 10.513 9.70435 10.6478 11.187C10.1087 10.1087 9.56956 9.03044 9.03043 7.95217C9.16522 7.95217 9.3 7.68261 9.3 7.41304C9.16522 7.14348 8.89565 6.87391 8.62609 7.0087C8.4913 7.0087 8.35652 7.14348 8.35652 7.27826C8.22174 7.68261 8.4913 7.81739 8.62609 7.95217ZM10.7826 12.4C10.9174 12.2652 11.187 12.2652 11.4565 12.1304C11.5913 12.1304 11.5913 12.1304 11.7261 12.1304H11.8609C12.4 12.1304 12.8043 12.1304 13.2087 12.4C13.3435 12.4 13.4783 12.5348 13.4783 12.6696C13.4783 12.8043 13.0739 12.9391 12.9391 12.9391C12.4 13.0739 11.5913 13.0739 11.0522 12.9391C10.9174 12.9391 10.6478 12.8043 10.6478 12.6696C10.513 12.5348 10.6478 12.4 10.7826 12.4Z" fill="#06AB4D"/>
</g>
<defs>
<clipPath id="clip0_87_403">
<rect width="31" height="31" fill="white"/>
</clipPath>
</defs>
</svg>
