<svg width="66" height="68" viewBox="0 0 66 68" fill="none" xmlns="http://www.w3.org/2000/svg">
<path d="M45.5943 21.5809C45.6066 21.5809 45.6231 21.5809 45.6395 21.5809C46.0695 21.5809 46.4686 21.7179 46.7957 21.9539L46.7895 21.9497C47.0282 22.1626 47.1886 22.4618 47.2277 22.799V22.8053C47.2689 23.0624 47.2915 23.3575 47.2915 23.6588C47.2915 23.7958 47.2874 23.9307 47.2771 24.0655V24.0466C46.8142 29.039 44.8064 41.146 43.786 46.7348C43.354 49.1014 42.5043 49.8938 41.6815 49.9696C39.8937 50.1403 38.536 48.76 36.8038 47.5967C34.0924 45.7738 32.5598 44.64 29.9286 42.8635C26.886 40.813 28.8588 39.6813 30.591 37.8395C31.0456 37.3548 38.9268 30.0105 39.0811 29.3446C39.0894 29.3045 39.0935 29.2603 39.0935 29.2139C39.0935 29.0495 39.0338 28.8999 38.9371 28.7861C38.8302 28.7145 38.6964 28.6744 38.5565 28.6744C38.464 28.6744 38.3755 28.6934 38.2932 28.725L38.2973 28.7229C38.0258 28.7861 33.6947 31.7182 25.3039 37.5191C24.3885 38.2588 23.2323 38.7267 21.9733 38.7815H21.961C20.1774 38.5602 18.5583 38.1535 17.0216 37.5739L17.1738 37.6245C15.2442 36.9797 13.7115 36.6404 13.8432 35.5487C13.9131 34.9811 14.677 34.4002 16.1349 33.8059C25.1154 29.7977 31.1039 27.1557 34.1006 25.88C37.4066 24.0824 41.2392 22.603 45.2693 21.6441L45.5922 21.5788L45.5943 21.5809ZM32.856 2.58276C15.777 2.62491 1.94629 16.8182 1.94629 34.3201C1.94629 51.8473 15.8161 66.0575 32.928 66.0575C50.0399 66.0575 63.9097 51.8494 63.9097 34.3201C63.9097 16.8182 50.079 2.62491 33.0041 2.58276H33C32.952 2.58276 32.904 2.58276 32.856 2.58276Z" fill="black"/>
</svg>
