<svg width="20" height="20" viewBox="0 0 20 20" fill="none" xmlns="http://www.w3.org/2000/svg">
<g clip-path="url(#clip0_221_62)">
<path d="M13.827 6.275C13.8308 6.275 13.8358 6.275 13.8408 6.275C13.9714 6.275 14.0927 6.31563 14.192 6.38563L14.1902 6.38438C14.2627 6.4475 14.3114 6.53625 14.3233 6.63625V6.63813C14.3358 6.71438 14.3427 6.80188 14.3427 6.89125C14.3427 6.93188 14.3414 6.97188 14.3383 7.01188V7.00625C14.1977 8.48688 13.5877 12.0775 13.2777 13.735C13.1464 14.4369 12.8883 14.6719 12.6383 14.6944C12.0952 14.745 11.6827 14.3356 11.1564 13.9906C10.3327 13.45 9.86703 13.1138 9.06766 12.5869C8.14328 11.9788 8.74266 11.6431 9.26891 11.0969C9.40703 10.9531 11.8014 8.775 11.8483 8.5775C11.8508 8.56563 11.852 8.5525 11.852 8.53875C11.852 8.49 11.8339 8.44562 11.8045 8.41187C11.772 8.39062 11.7314 8.37875 11.6889 8.37875C11.6608 8.37875 11.6339 8.38438 11.6089 8.39375L11.6102 8.39313C11.5277 8.41188 10.2118 9.28146 7.66266 11.0019C7.38453 11.2213 7.03328 11.36 6.65078 11.3763H6.64703C6.10516 11.3106 5.61328 11.19 5.14641 11.0181L5.19266 11.0331C4.60641 10.8419 4.14078 10.7413 4.18078 10.4175C4.20203 10.2492 4.43412 10.0769 4.87703 9.90063C7.60537 8.71187 9.42474 7.92833 10.3352 7.55C11.3395 7.01688 12.5039 6.57812 13.7283 6.29375L13.8264 6.27437L13.827 6.275ZM9.95703 0.640625C4.76828 0.653125 0.566406 4.8625 0.566406 10.0531C0.566406 15.2513 4.78016 19.4656 9.97891 19.4656C15.1777 19.4656 19.3914 15.2519 19.3914 10.0531C19.3914 4.8625 15.1895 0.653125 10.002 0.640625H10.0008C9.9862 0.640625 9.97162 0.640625 9.95703 0.640625Z" fill="white"/>
</g>
<defs>
<clipPath id="clip0_221_62">
<rect width="20" height="20" fill="white"/>
</clipPath>
</defs>
</svg>
