<svg width="24" height="24" viewBox="0 0 24 24" fill="none" xmlns="http://www.w3.org/2000/svg">
<path fill-rule="evenodd" clip-rule="evenodd" d="M23.2982 5.89955C23.4631 5.35002 23.2982 4.94617 22.5139 4.94617H19.9201C19.2605 4.94617 18.9565 5.29496 18.7918 5.67984C18.7918 5.67984 17.4725 8.89483 15.604 10.9834C14.9996 11.588 14.7249 11.7805 14.3948 11.7805C14.2301 11.7805 13.9915 11.588 13.9915 11.0387V5.89955C13.9915 5.24016 13.7999 4.94617 13.2504 4.94617H9.17399C8.76197 4.94617 8.51381 5.25228 8.51381 5.54259C8.51381 6.16773 9.44823 6.31209 9.54464 8.0708V11.8904C9.54464 12.7278 9.39343 12.8801 9.06361 12.8801C8.18452 12.8801 6.0454 9.65037 4.77669 5.95487C4.528 5.23648 4.27879 4.94643 3.61598 4.94643H1.02218C0.280864 4.94617 0.132812 5.29496 0.132812 5.67958C0.132812 6.36662 1.0119 9.77419 4.22716 14.2808C6.37048 17.3583 9.39027 19.0269 12.1384 19.0269C13.787 19.0269 13.9912 18.6562 13.9912 18.0179V15.692C13.9912 14.9507 14.1474 14.8029 14.6696 14.8029C15.0542 14.8029 15.7136 14.995 17.2526 16.4789C19.0113 18.2376 19.3011 19.0266 20.2905 19.0266H22.8843C23.6251 19.0266 23.9958 18.656 23.7821 17.9249C23.5479 17.196 22.7084 16.1386 21.5943 14.8854C20.9897 14.171 20.0827 13.4015 19.8079 13.0166C19.423 12.5221 19.5331 12.3024 19.8079 11.8625C19.8079 11.8625 22.9686 7.41089 23.2982 5.89955Z" fill="white"/>
</svg>
