<svg width="81" height="81" viewBox="0 0 81 81" fill="none" xmlns="http://www.w3.org/2000/svg">
<path fill-rule="evenodd" clip-rule="evenodd" d="M78.6495 19.7345C79.2011 17.8963 78.6495 16.5454 76.0261 16.5454H67.3496C65.1431 16.5454 64.1261 17.7121 63.5754 18.9996C63.5754 18.9996 59.1623 29.754 52.9118 36.7403C50.8903 38.7627 49.9712 39.4068 48.867 39.4068C48.3162 39.4068 47.5178 38.7627 47.5178 36.9253V19.7345C47.5178 17.5288 46.8772 16.5454 45.039 16.5454H31.403C30.0248 16.5454 29.1947 17.5694 29.1947 18.5405C29.1947 20.6316 32.3204 21.1145 32.6429 26.9975V39.7743C32.6429 42.5757 32.1371 43.085 31.0338 43.085C28.0932 43.085 20.9377 32.2813 16.6938 19.9196C15.8619 17.5165 15.0283 16.5463 12.8111 16.5463H4.13466C1.65491 16.5454 1.15967 17.7121 1.15967 18.9987C1.15967 21.2969 4.10029 32.6955 14.8555 47.7705C22.0251 58.0648 32.1265 63.6465 41.3194 63.6465C46.834 63.6465 47.517 62.4066 47.517 60.2714V52.4911C47.517 50.0114 48.0395 49.517 49.7861 49.517C51.0727 49.517 53.2784 50.1594 58.4264 55.1233C64.3094 61.0063 65.2788 63.6456 68.5886 63.6456H77.2651C79.7431 63.6456 80.9829 62.4057 80.2683 59.9603C79.4849 57.522 76.6764 53.9848 72.9498 49.7929C70.9274 47.403 67.8933 44.829 66.9742 43.5415C65.6868 41.8874 66.0551 41.1525 66.9742 39.6809C66.9742 39.6809 77.5471 24.7901 78.6495 19.7345Z" fill="black"/>
</svg>
