<svg width="30" height="71" viewBox="0 0 30 71" fill="none" xmlns="http://www.w3.org/2000/svg">
<path d="M29.2262 52.7207L29.2262 71L14.8196 71L11.7215 67.024L11.7215 59.0204L5.83491 59.0204L5.83491 64.5455L8.00364 64.5455L8.00364 70.9484L3.09818 70.9484L-1.76054e-07 66.9724L-6.2973e-07 56.5935L3.14982 52.6691L14.4582 52.6691L17.608 56.6967L17.608 64.5971L23.4429 64.5971L23.4429 52.6691L29.2262 52.6691L29.2262 52.7207ZM28.7098 70.5869L28.7098 53.2371L23.9593 53.2371L23.9593 65.1651L16.9884 65.1651L16.9884 56.9549L14.0967 53.2371L3.408 53.2371L0.516363 56.8516L0.516363 66.9724L3.408 70.5869L7.43564 70.5869L7.43564 65.1135L5.26691 65.1135L5.26691 58.6589L12.1862 58.6589L12.1862 66.9724L15.0778 70.5869L28.7098 70.5869Z" fill="#06AB4D"/>
<path d="M29.2262 32.1696L29.2262 39.2954L18.2276 45.2852L29.2262 45.2852L29.2262 51.6365L0 51.6365L-2.77623e-07 45.2852L10.9985 45.2852L-5.39446e-07 39.2954L-8.50926e-07 32.1696L14.6131 40.2248L29.2262 32.1696ZM28.7098 39.0372L28.7098 33.0474L14.6647 40.7928L0.567999 33.0474L0.567999 39.0372L12.9091 45.7499L0.568 45.7499L0.568 51.1718L28.7098 51.1717L28.7098 45.7499L16.3171 45.7499L28.7098 39.0372Z" fill="#06AB4D"/>
<path d="M14.2516 19.7766L17.2982 23.7526L17.2982 31.9628L23.8044 31.9628L23.8044 19.7766L29.2262 19.7766L29.2262 37.9526L14.9745 37.9526L11.928 34.0799L11.928 25.7665L5.42182 25.7665L5.42182 31.8595L7.64218 31.8595L7.64218 37.901L3.04655 37.901L-1.7154e-07 34.0283L-6.27473e-07 23.5977L3.04654 19.725L14.2516 19.725L14.2516 19.7766Z" fill="white"/>
<path d="M26.1796 0.000150445L29.2262 3.87288L29.2262 14.4067L26.1796 18.2278L21.4807 18.2278L21.4807 12.238L23.856 12.238L23.856 6.09324L17.3498 6.09324L17.3498 12.6511L11.928 12.6511L11.928 6.09324L5.42182 6.09324L5.42182 12.238L7.64218 12.238L7.64218 18.2278L3.04655 18.2278L-1.69282e-07 14.3551L-6.27473e-07 3.87288L3.04654 0.000151456L12.0313 0.000151064L14.6131 2.27215L17.1433 0.00015084L26.1796 0.000150445Z" fill="white"/>
</svg>
