<svg width="81" height="81" viewBox="0 0 81 81" fill="none" xmlns="http://www.w3.org/2000/svg">
<path d="M75.0547 21.2359C74.6574 19.6484 73.8481 18.1938 72.7087 17.0192C71.5692 15.8445 70.14 14.9913 68.5653 14.5458C62.8118 13.1409 39.7977 13.1409 39.7977 13.1409C39.7977 13.1409 16.7836 13.1409 11.0301 14.6796C9.45538 15.1251 8.02613 15.9783 6.8867 17.153C5.74726 18.3276 4.938 19.7822 4.54064 21.3697C3.48767 27.2087 2.9726 33.132 3.00191 39.0652C2.96438 45.043 3.47948 51.0114 4.54064 56.8944C4.97871 58.4326 5.80611 59.8318 6.94289 60.9569C8.07967 62.082 9.4874 62.8948 11.0301 63.3169C16.7836 64.8557 39.7977 64.8557 39.7977 64.8557C39.7977 64.8557 62.8118 64.8557 68.5653 63.3169C70.14 62.8714 71.5692 62.0182 72.7087 60.8436C73.8481 59.6689 74.6574 58.2143 75.0547 56.6268C76.0996 50.8317 76.6146 44.9536 76.5935 39.0652C76.631 33.0874 76.1159 27.1189 75.0547 21.2359Z" fill="black"/>
<path d="M33 48.1409L49 39.1409L33 30.1409V48.1409Z" fill="white"/>
</svg>
